<svg xmlns="http://www.w3.org/2000/svg" viewBox="0 0 1200 630" width="1200" height="630" role="img" aria-label="Carpentry USA LLC — Doylestown, PA">
  <defs>
    <radialGradient id="glow" cx="82%" cy="6%" r="70%">
      <stop offset="0%" stop-color="#d9822b" stop-opacity="0.30"/>
      <stop offset="55%" stop-color="#d9822b" stop-opacity="0"/>
    </radialGradient>
    <pattern id="lines" width="30" height="30" patternTransform="rotate(135)" patternUnits="userSpaceOnUse">
      <line x1="0" y1="0" x2="0" y2="30" stroke="#ffffff" stroke-opacity="0.035" stroke-width="2"/>
    </pattern>
  </defs>
  <rect width="1200" height="630" fill="#16191d"/>
  <rect width="1200" height="630" fill="url(#lines)"/>
  <rect width="1200" height="630" fill="url(#glow)"/>
  <rect x="0" y="0" width="1200" height="10" fill="#d9822b"/>

  <g transform="translate(90 96)">
    <rect width="72" height="72" rx="16" fill="#22262c"/>
    <g transform="translate(15 16) scale(1.7)" stroke="#e79a4c" stroke-width="2" fill="none" stroke-linecap="round" stroke-linejoin="round">
      <path d="M15 6l6 6-3 3-6-6z"/>
      <path d="M12 9l-8 8a2 2 0 0 0 0 3 2 2 0 0 0 3 0l8-8"/>
    </g>
    <text x="92" y="34" font-family="Archivo, Arial, sans-serif" font-size="26" font-weight="700" letter-spacing="3" fill="#ffffff">CARPENTRY <tspan fill="#e79a4c">USA</tspan></text>
    <text x="92" y="60" font-family="Arial, sans-serif" font-size="17" letter-spacing="2" fill="#9aa0a8">DOYLESTOWN, PA · LICENSED GENERAL CONTRACTOR</text>
  </g>

  <text x="90" y="330" font-family="Archivo, Arial, sans-serif" font-size="86" font-weight="800" fill="#ffffff">Get It Done <tspan fill="#e79a4c">Right</tspan></text>
  <text x="90" y="420" font-family="Archivo, Arial, sans-serif" font-size="86" font-weight="800" fill="#ffffff">the First Time.</text>

  <text x="90" y="500" font-family="Arial, sans-serif" font-size="27" fill="#c7ccd2">Remodeling · Roofing &amp; Siding · Custom Carpentry · Restoration</text>

  <g transform="translate(90 540)">
    <rect width="360" height="54" rx="8" fill="#d9822b"/>
    <text x="180" y="35" text-anchor="middle" font-family="Archivo, Arial, sans-serif" font-size="24" font-weight="700" fill="#ffffff">Free Estimate: (215) 340-0365</text>
  </g>
  <text x="1110" y="576" text-anchor="end" font-family="Arial, sans-serif" font-size="19" fill="#7f858d">27+ years · 5,000+ projects · 5.0★</text>
</svg>
