<svg xmlns="http://www.w3.org/2000/svg" viewBox="0 0 640 512" width="640" height="512" role="img" aria-label="Montessori classroom scene">
	<defs>
		<linearGradient id="sky" x1="0" y1="0" x2="0" y2="1">
			<stop offset="0" stop-color="#f3ecdd"/>
			<stop offset="1" stop-color="#e9dfc9"/>
		</linearGradient>
	</defs>
	<rect width="640" height="512" fill="url(#sky)"/>
	<circle cx="510" cy="120" r="70" fill="#d9a441" opacity="0.85"/>
	<path d="M0 400 Q160 340 320 400 T640 400 V512 H0 Z" fill="#7ea295"/>
	<path d="M0 440 Q200 390 400 440 T640 430 V512 H0 Z" fill="#2f5d50"/>
	<!-- shelf -->
	<rect x="70" y="250" width="230" height="120" rx="10" fill="#c9704b"/>
	<rect x="86" y="270" width="60" height="36" rx="6" fill="#faf6ee"/>
	<rect x="156" y="270" width="60" height="36" rx="6" fill="#d9a441"/>
	<rect x="226" y="270" width="58" height="36" rx="6" fill="#7ea295"/>
	<rect x="86" y="316" width="198" height="10" rx="5" fill="#faf6ee" opacity="0.7"/>
	<!-- child -->
	<circle cx="420" cy="300" r="30" fill="#3a362f"/>
	<rect x="392" y="330" width="56" height="70" rx="20" fill="#c9704b"/>
	<!-- child 2 -->
	<circle cx="500" cy="320" r="26" fill="#55504a"/>
	<rect x="476" y="346" width="48" height="60" rx="18" fill="#7ea295"/>
	<!-- plant -->
	<rect x="330" y="330" width="16" height="40" fill="#8a8378"/>
	<circle cx="338" cy="320" r="22" fill="#2f5d50"/>
</svg>
