<svg viewBox="0 0 64 64" xmlns="http://www.w3.org/2000/svg" role="img" aria-label="CCDC">
  <defs>
    <linearGradient id="g" x1="0" y1="0" x2="1" y2="1">
      <stop offset="0" stop-color="#12a3a6"/>
      <stop offset="1" stop-color="#0b6d70"/>
    </linearGradient>
  </defs>
  <circle cx="32" cy="32" r="32" fill="url(#g)"/>
  <path d="M32 16c-9 0-13 5-19 5-4 0-3 8-3 16 0 13 5 21 9 21 3 0 4-7 7-7s4 7 7 7c4 0 9-8 9-21 0-8 1-16-3-16-6 0-9-5-16-5z" fill="#fff"/>
  <path d="M25 33c3 4 11 4 14 0" fill="none" stroke="#12a3a6" stroke-width="3" stroke-linecap="round"/>
</svg>
